<svg width="146" height="59" viewBox="0 0 146 59" fill="none" xmlns="http://www.w3.org/2000/svg">
<path d="M133.44 16.7383H21.2099C18.2883 16.7383 15.9199 19.1067 15.9199 22.0283V53.1483C15.9199 56.0699 18.2883 58.4383 21.2099 58.4383H133.44C136.362 58.4383 138.73 56.0699 138.73 53.1483V22.0283C138.73 19.1067 136.362 16.7383 133.44 16.7383Z" fill="#002776"/>
<path d="M139.52 58.4298H31.59C30.1037 58.4141 28.6834 57.8132 27.6371 56.7575C26.5907 55.7018 26.0025 54.2763 26 52.7898V22.2299C26.0026 20.7348 26.5977 19.3018 27.6548 18.2447C28.712 17.1875 30.145 16.5925 31.64 16.5898H139.52C141.015 16.5925 142.448 17.1875 143.505 18.2447C144.562 19.3018 145.157 20.7348 145.16 22.2299V52.7898C145.157 54.2849 144.562 55.7179 143.505 56.775C142.448 57.8321 141.015 58.4272 139.52 58.4298ZM31.59 17.5898C30.3689 17.6056 29.203 18.1011 28.3442 18.9693C27.4853 19.8375 27.0025 21.0087 27 22.2299V52.7898C27 54.0205 27.4889 55.2007 28.359 56.0708C29.2292 56.941 30.4094 57.4298 31.64 57.4298H139.52C140.751 57.4298 141.931 56.941 142.801 56.0708C143.671 55.2007 144.16 54.0205 144.16 52.7898V22.2299C144.157 21.0001 143.668 19.8214 142.798 18.9518C141.928 18.0822 140.75 17.5925 139.52 17.5898H31.59Z" fill="#002776"/>
<path d="M140.61 57.5105C139.779 56.7508 139.071 55.867 138.51 54.8905C137.803 54.0129 137.237 53.0313 136.83 51.9805C137.663 52.7412 138.374 53.6247 138.94 54.6005C139.646 55.4768 140.21 56.4588 140.61 57.5105Z" fill="#002776"/>
<path d="M144.66 25.2783C143.421 24.0197 142.312 22.6394 141.35 21.1583C140.25 19.779 139.282 18.2992 138.46 16.7383C139.699 17.9969 140.808 19.3772 141.77 20.8583C142.874 22.2345 143.842 23.7148 144.66 25.2783Z" fill="#002776"/>
<path d="M144.23 51.9993C144.08 52.1093 142.58 49.9993 140.94 47.1793C140.11 45.7993 139.38 44.5393 138.87 43.6193C138.552 43.1407 138.291 42.6274 138.09 42.0893C138.24 41.9893 139.74 44.1493 141.38 46.9093C142.21 48.2893 142.94 49.5493 143.46 50.4693C143.777 50.9463 144.036 51.4601 144.23 51.9993Z" fill="#002776"/>
<path d="M144.69 43.2608C144.54 43.3708 142.94 41.0408 141.17 38.0708C140.28 36.5808 139.49 35.2308 138.93 34.2408C138.594 33.7246 138.312 33.175 138.09 32.6008C138.24 32.5008 139.84 34.8308 141.62 37.8008C142.51 39.2808 143.29 40.6408 143.85 41.6208C144.188 42.1354 144.47 42.6853 144.69 43.2608Z" fill="#002776"/>
<path d="M144.68 34.6293C144.53 34.7393 142.92 32.3893 141.14 29.4093C140.24 27.9193 139.45 26.5493 138.89 25.5593C138.548 25.0419 138.263 24.4886 138.04 23.9093C138.19 23.8093 139.8 26.1493 141.58 29.1393C142.48 30.6293 143.27 31.9893 143.83 32.9893C144.176 33.5013 144.461 34.0517 144.68 34.6293Z" fill="#002776"/>
<path d="M12.8903 23.2001C10.7395 22.9096 8.61584 22.4447 6.54031 21.8102C4.41994 21.3425 2.34006 20.7072 0.320312 19.9102C2.47113 20.2008 4.59478 20.6656 6.67031 21.3002C8.79118 21.7659 10.8712 22.4013 12.8903 23.2001Z" fill="#263238"/>
<path d="M14.1 15.69C11.7522 13.2431 9.53253 10.6763 7.44996 8C5.23126 5.44448 3.14839 2.77413 1.20996 0C3.55504 2.4529 5.77455 5.02285 7.85996 7.7C10.0729 10.2568 12.1555 12.9235 14.1 15.69Z" fill="#263238"/>
<path d="M23.3707 12.0694C22.6494 10.3923 22.1875 8.61535 22.0007 6.79937C21.6392 5.0092 21.5649 3.17289 21.7807 1.35938C21.9307 1.35937 22.0707 3.77937 22.5107 6.72937C22.9507 9.67937 23.5207 11.9994 23.3707 12.0694Z" fill="#263238"/>
<path d="M30.3672 32.4141C30.8125 32.5195 31.2109 32.6016 31.5625 32.6602C31.9258 32.707 32.2305 32.7422 32.4766 32.7656C32.7695 32.8008 33.0273 32.8125 33.25 32.8008C33.5312 32.7891 33.8828 32.748 34.3047 32.6777C34.7266 32.6074 35.1719 32.5371 35.6406 32.4668C36.1094 32.3965 36.5723 32.3379 37.0293 32.291C37.4863 32.2441 37.8848 32.2383 38.2246 32.2734C38.5645 32.3086 38.9219 32.3906 39.2969 32.5195C39.6719 32.6367 40.0234 32.8008 40.3516 33.0117C40.6797 33.2109 40.9609 33.457 41.1953 33.75C41.4414 34.043 41.5938 34.3828 41.6523 34.7695C41.7109 35.1445 41.6758 35.5488 41.5469 35.9824C41.418 36.4043 41.2129 36.8203 40.9316 37.2305C40.6504 37.6289 40.2988 37.998 39.877 38.3379C39.4551 38.6777 38.9863 38.9531 38.4707 39.1641C38.0605 39.3164 37.6152 39.4336 37.1348 39.5156C36.7246 39.5859 36.2441 39.6328 35.6934 39.6562C35.1543 39.668 34.5801 39.6094 33.9707 39.4805C33.8887 39.8203 33.8418 40.1367 33.8301 40.4297C33.8301 40.7109 33.8418 40.9629 33.8652 41.1855C33.9004 41.4434 33.9473 41.6777 34.0059 41.8887C34.0762 42.0996 34.1641 42.3457 34.2695 42.627C34.3633 42.8613 34.4688 43.1484 34.5859 43.4883C34.7148 43.8164 34.8672 44.1855 35.043 44.5957C34.832 44.5957 34.627 44.6016 34.4277 44.6133C34.2285 44.6133 34.0469 44.6191 33.8828 44.6309C33.6953 44.6426 33.5195 44.6543 33.3555 44.666C33.168 44.6777 32.957 44.7012 32.7227 44.7363C32.5234 44.7598 32.2715 44.7949 31.9668 44.8418C31.6738 44.8887 31.3398 44.9473 30.9648 45.0176C31.2109 44.666 31.4043 44.3438 31.5449 44.0508C31.6973 43.7461 31.8086 43.4824 31.8789 43.2598C31.9609 43.002 32.0137 42.7676 32.0371 42.5566C32.0488 42.3809 32.0488 42.0703 32.0371 41.625C32.0371 41.1797 32.0312 40.6641 32.0195 40.0781C32.0078 39.4922 31.9902 38.877 31.9668 38.2324C31.9434 37.5879 31.9141 36.9844 31.8789 36.4219C31.8438 35.8477 31.8027 35.3555 31.7559 34.9453C31.7207 34.5352 31.6855 34.2656 31.6504 34.1367C31.6035 33.9844 31.5215 33.8203 31.4043 33.6445C31.3105 33.4922 31.1758 33.3164 31 33.1172C30.8359 32.9062 30.625 32.6719 30.3672 32.4141ZM34.0059 35.877C33.9941 35.9941 33.9883 36.1172 33.9883 36.2461C33.9883 36.4922 34.0059 36.8086 34.041 37.1953C34.123 37.3945 34.2227 37.5586 34.3398 37.6875C34.4688 37.8164 34.6035 37.916 34.7441 37.9863C34.8965 38.0566 35.0488 38.1035 35.2012 38.127C35.3535 38.1504 35.5059 38.1621 35.6582 38.1621C36.0098 38.1504 36.3789 38.0684 36.7656 37.916C37.2812 37.6934 37.6445 37.377 37.8555 36.9668C38.0664 36.5566 38.1777 36.1348 38.1895 35.7012C38.2012 35.2676 38.125 34.8691 37.9609 34.5059C37.8086 34.1426 37.6211 33.8965 37.3984 33.7676C37.2109 33.6855 36.9707 33.6504 36.6777 33.6621C36.4199 33.6738 36.0977 33.7383 35.7109 33.8555C35.3242 33.9727 34.8496 34.1836 34.2871 34.4883C34.2285 34.6992 34.1816 34.8867 34.1465 35.0508C34.1113 35.2148 34.082 35.3613 34.0586 35.4902C34.0352 35.6309 34.0176 35.7598 34.0059 35.877ZM40.8613 32.168C41.2363 32.2266 41.5762 32.2793 41.8809 32.3262C42.1855 32.3613 42.4492 32.3906 42.6719 32.4141C42.9297 32.4492 43.1582 32.4785 43.3574 32.502C43.6035 32.5371 43.9727 32.4961 44.4648 32.3789C44.957 32.25 45.4961 32.1328 46.082 32.0273C46.6797 31.9102 47.2891 31.8457 47.9102 31.834C48.5312 31.8105 49.0996 31.9219 49.6152 32.168C50.1309 32.4141 50.5527 32.6602 50.8809 32.9062C51.209 33.1523 51.4668 33.416 51.6543 33.6973C51.8535 33.9668 51.9941 34.2539 52.0762 34.5586C52.1582 34.8633 52.2051 35.1973 52.2168 35.5605C52.2051 36.0996 52.0762 36.6211 51.8301 37.125C51.7246 37.3359 51.584 37.5586 51.4082 37.793C51.2441 38.0156 51.0391 38.2324 50.793 38.4434C50.5469 38.6543 50.2539 38.8535 49.9141 39.041C49.5859 39.2285 49.1992 39.3926 48.7539 39.5332C49.1875 39.6621 49.5449 39.8145 49.8262 39.9902C50.1191 40.166 50.3535 40.3301 50.5293 40.4824C50.7402 40.6699 50.8984 40.8516 51.0039 41.0273C51.1328 41.2734 51.2207 41.4844 51.2676 41.6602C51.3145 41.8359 51.3438 42.0059 51.3555 42.1699C51.3789 42.3223 51.4082 42.4805 51.4434 42.6445C51.4785 42.8086 51.5547 42.9961 51.6719 43.207C51.7656 43.3711 51.877 43.541 52.0059 43.7168C52.123 43.8691 52.2578 44.0332 52.4102 44.209C52.5742 44.3848 52.7734 44.5547 53.0078 44.7188C52.6797 44.7305 52.375 44.7363 52.0938 44.7363C51.8242 44.7363 51.5898 44.7363 51.3906 44.7363C51.1562 44.7363 50.9336 44.7305 50.7227 44.7188C50.5117 44.707 50.248 44.7012 49.9316 44.7012C49.6621 44.7012 49.3164 44.7012 48.8945 44.7012C48.4844 44.7012 47.9863 44.707 47.4004 44.7188C47.6582 44.5195 47.8691 44.3203 48.0332 44.1211C48.1973 43.9219 48.3262 43.7402 48.4199 43.5762C48.5254 43.3887 48.6016 43.207 48.6484 43.0312C48.707 42.7148 48.7129 42.3867 48.666 42.0469C48.6309 41.7539 48.5371 41.4316 48.3848 41.0801C48.2324 40.7168 47.9863 40.3535 47.6465 39.9902C47.3066 40.0488 47.0195 40.0957 46.7852 40.1309C46.5625 40.1543 46.3691 40.1777 46.2051 40.2012C46.0176 40.2246 45.8652 40.2422 45.748 40.2539C45.6426 40.2656 45.5254 40.2773 45.3965 40.2891C45.291 40.3008 45.1738 40.3184 45.0449 40.3418C44.9277 40.3535 44.8164 40.3711 44.7109 40.3945C44.6875 40.8984 44.6875 41.3379 44.7109 41.7129C44.7344 42.0762 44.7637 42.3809 44.7988 42.627C44.8457 42.9199 44.8984 43.1719 44.957 43.3828C45.0156 43.5938 45.0977 43.7988 45.2031 43.998C45.2852 44.1621 45.3906 44.3379 45.5195 44.5254C45.6484 44.7012 45.7949 44.8477 45.959 44.9648C45.6543 44.9648 45.3613 44.9648 45.0801 44.9648C44.8105 44.9648 44.5645 44.959 44.3418 44.9473C44.084 44.9473 43.8379 44.9414 43.6035 44.9297C43.3691 44.918 43.1055 44.9121 42.8125 44.9121C42.5664 44.9121 42.2734 44.9121 41.9336 44.9121C41.6055 44.9121 41.248 44.918 40.8613 44.9297C41.166 44.6133 41.4062 44.3438 41.582 44.1211C41.7578 43.8984 41.8926 43.7109 41.9863 43.5586C42.0918 43.3945 42.1562 43.2539 42.1797 43.1367C42.2031 42.9492 42.2207 42.6152 42.2324 42.1348C42.2559 41.6426 42.2734 41.0801 42.2852 40.4473C42.2969 39.8145 42.3027 39.1523 42.3027 38.4609C42.3027 37.7695 42.2969 37.125 42.2852 36.5273C42.2734 35.918 42.2617 35.3965 42.25 34.9629C42.2383 34.5293 42.2266 34.2539 42.2148 34.1367C42.1797 33.9258 42.1035 33.7148 41.9863 33.5039C41.8926 33.3164 41.7578 33.1055 41.582 32.8711C41.4062 32.6367 41.166 32.4023 40.8613 32.168ZM47.5059 38.3555C47.623 38.2852 47.7227 38.2148 47.8047 38.1445C47.8867 38.0742 47.957 37.9629 48.0156 37.8105C48.0742 37.6465 48.1211 37.418 48.1562 37.125C48.2031 36.832 48.2559 36.4336 48.3145 35.9297C48.3613 35.4258 48.3262 35.0098 48.209 34.6816C48.1035 34.3535 47.957 34.0957 47.7695 33.9082C47.5938 33.709 47.3945 33.5742 47.1719 33.5039C46.9609 33.4219 46.7734 33.3809 46.6094 33.3809C46.2812 33.3809 45.959 33.4805 45.6426 33.6797C45.3262 33.8789 45.0859 34.1484 44.9219 34.4883C44.8633 34.6406 44.8105 34.8926 44.7637 35.2441C44.7285 35.5488 44.7051 35.9707 44.6934 36.5098C44.6816 37.0488 44.6992 37.7578 44.7461 38.6367C45.1914 38.707 45.584 38.7363 45.9238 38.7246C46.2637 38.7012 46.5508 38.6602 46.7852 38.6016C47.0664 38.543 47.3066 38.4609 47.5059 38.3555ZM51.9355 32.9941C52.7559 33.0176 53.4355 33.0352 53.9746 33.0469C54.5254 33.0469 54.9707 33.0469 55.3105 33.0469H56.2422H61.4805C61.5039 33.2812 61.5215 33.5098 61.5332 33.7324C61.5566 33.9434 61.5684 34.1309 61.5684 34.2949C61.5684 34.4941 61.5625 34.6758 61.5508 34.8398C61.5391 35.0039 61.5215 35.1797 61.498 35.3672C61.4746 35.5312 61.4512 35.707 61.4277 35.8945C61.4043 36.082 61.3633 36.2754 61.3047 36.4746C61.1406 35.8418 60.918 35.3613 60.6367 35.0332C60.3672 34.7051 60.0918 34.4648 59.8105 34.3125C59.4824 34.1367 59.1367 34.043 58.7734 34.0312C58.293 34.0547 57.918 34.0957 57.6484 34.1543C57.3789 34.2129 57.168 34.2949 57.0156 34.4004C56.8633 34.5059 56.7461 34.6289 56.6641 34.7695C56.5938 34.8984 56.5176 35.0449 56.4355 35.209C56.3652 35.3496 56.3008 35.5664 56.2422 35.8594C56.1836 36.1055 56.125 36.4395 56.0664 36.8613C56.0195 37.2832 55.9668 37.8281 55.9082 38.4961C56.2246 38.4023 56.4766 38.3145 56.6641 38.2324C56.8633 38.1504 57.0215 38.0801 57.1387 38.0215C57.2676 37.9512 57.3613 37.8867 57.4199 37.8281C57.4668 37.7578 57.5371 37.6289 57.6309 37.4414C57.7012 37.2773 57.7949 37.0547 57.9121 36.7734C58.041 36.4922 58.1934 36.1055 58.3691 35.6133C58.3926 36.1523 58.4043 36.6035 58.4043 36.9668C58.4043 37.3184 58.4102 37.6055 58.4219 37.8281C58.4219 38.0859 58.4277 38.291 58.4395 38.4434V39.1113C58.4395 39.3574 58.4395 39.6914 58.4395 40.1133C58.4512 40.5234 58.4688 41.0449 58.4922 41.6777C58.3516 41.2441 58.2227 40.9043 58.1055 40.6582C58 40.4004 57.9062 40.207 57.8242 40.0781C57.7305 39.9258 57.6484 39.8203 57.5781 39.7617C57.4961 39.7383 57.3848 39.7148 57.2441 39.6914C57.1152 39.6797 56.9512 39.6738 56.752 39.6738C56.5645 39.6738 56.3242 39.7031 56.0312 39.7617C55.9961 40.4062 55.9902 40.9277 56.0137 41.3262C56.0488 41.7129 56.0957 42.0117 56.1543 42.2227C56.2129 42.4688 56.2832 42.6445 56.3652 42.75C56.4707 42.8555 56.6816 42.9434 56.998 43.0137C57.3145 43.0723 57.6719 43.0957 58.0703 43.084C58.4805 43.0605 58.8965 42.9902 59.3184 42.873C59.7402 42.7559 60.1152 42.5625 60.4434 42.293C60.6895 42.0703 60.9531 41.7891 61.2344 41.4492C61.4688 41.1562 61.7266 40.7871 62.0078 40.3418C62.3008 39.8965 62.5879 39.3574 62.8691 38.7246C62.8223 39.252 62.7871 39.6914 62.7637 40.043C62.752 40.3828 62.7344 40.6582 62.7109 40.8691C62.6875 41.1152 62.6699 41.3027 62.6582 41.4316C62.6582 41.5723 62.6406 41.7715 62.6055 42.0293C62.582 42.252 62.541 42.5566 62.4824 42.9434C62.4355 43.3184 62.3711 43.7988 62.2891 44.3848C61.7383 44.3965 61.2168 44.4082 60.7246 44.4199C60.2324 44.4199 59.7988 44.4258 59.4238 44.4375C58.9785 44.4492 58.5684 44.4609 58.1934 44.4727C57.8066 44.4727 57.3789 44.4902 56.9102 44.5254C56.5 44.5488 56.0137 44.584 55.4512 44.6309C54.9004 44.6777 54.291 44.7422 53.623 44.8242C53.6816 44.0273 53.7227 43.2773 53.7461 42.5742C53.7812 41.8594 53.8047 41.2324 53.8164 40.6934C53.8281 40.0605 53.8281 39.4746 53.8164 38.9355C53.875 37.5879 53.8516 36.498 53.7461 35.666C53.6406 34.834 53.5176 34.3008 53.377 34.0664C53.3066 33.9844 53.207 33.8848 53.0781 33.7676C52.9727 33.6738 52.8262 33.5625 52.6387 33.4336C52.4512 33.3047 52.2168 33.1582 51.9355 32.9941ZM74.8047 32.1328C74.6406 32.5078 74.4941 32.8359 74.3652 33.1172C74.2363 33.3984 74.125 33.6387 74.0312 33.8379C73.9258 34.0605 73.8379 34.2598 73.7676 34.4355C73.709 34.5645 73.6328 34.7402 73.5391 34.9629C73.4453 35.1621 73.3281 35.4258 73.1875 35.7539C73.0586 36.0703 72.8887 36.4805 72.6777 36.9844C72.5723 36.5508 72.4434 36.1699 72.291 35.8418C72.1387 35.5137 71.9746 35.2266 71.7988 34.9805C71.623 34.7344 71.4355 34.5352 71.2363 34.3828C71.0488 34.2188 70.8613 34.084 70.6738 33.9785C70.2402 33.7441 69.7832 33.6152 69.3027 33.5918C68.6699 33.627 68.1719 33.7324 67.8086 33.9082C67.457 34.0723 67.1992 34.2656 67.0352 34.4883C66.8711 34.6992 66.7832 34.9219 66.7715 35.1562C66.7598 35.3789 66.7891 35.5664 66.8594 35.7188C66.918 35.8594 67.123 36.0234 67.4746 36.2109C67.8379 36.3984 68.2715 36.6152 68.7754 36.8613C69.291 37.0957 69.8418 37.3652 70.4277 37.6699C71.0137 37.9629 71.5527 38.291 72.0449 38.6543C72.5488 39.0059 72.9707 39.3926 73.3105 39.8145C73.6621 40.2246 73.8555 40.6641 73.8906 41.1328C73.9258 41.7305 73.9199 42.2695 73.873 42.75C73.8262 43.2305 73.6621 43.6406 73.3809 43.9805C73.0996 44.3203 72.6602 44.5898 72.0625 44.7891C71.4766 44.9883 70.6621 45.1113 69.6191 45.1582C68.541 45.2051 67.6562 45.1465 66.9648 44.9824C66.2734 44.8184 65.7109 44.5957 65.2773 44.3145C64.8555 44.0332 64.5391 43.7227 64.3281 43.3828C64.1289 43.043 63.9824 42.7207 63.8887 42.416C63.7949 42.0996 63.7305 41.8301 63.6953 41.6074C63.6602 41.373 63.6016 41.2324 63.5195 41.1855C63.4258 41.127 63.332 41.0742 63.2383 41.0273C63.1562 40.9805 63.0684 40.9395 62.9746 40.9043C62.8809 40.8574 62.7871 40.8164 62.6934 40.7812L67.8086 39.9551C67.5156 40.1895 67.2871 40.4062 67.123 40.6055C66.9707 40.8047 66.8535 40.9805 66.7715 41.1328C66.6777 41.3086 66.6133 41.4727 66.5781 41.625C66.5547 41.7891 66.6074 41.9941 66.7363 42.2402C66.8652 42.4863 67.041 42.7266 67.2637 42.9609C67.498 43.1836 67.7676 43.3711 68.0723 43.5234C68.377 43.6758 68.6934 43.7402 69.0215 43.7168C69.4316 43.6816 69.7656 43.582 70.0234 43.418C70.2812 43.2422 70.4746 43.0254 70.6035 42.7676C70.7441 42.5098 70.8262 42.2285 70.8496 41.9238C70.873 41.6191 70.8438 41.3203 70.7617 41.0273C70.6914 40.7227 70.5742 40.4414 70.4102 40.1836C70.2461 39.9141 70.0527 39.6914 69.8301 39.5156C69.6309 39.375 69.3203 39.2402 68.8984 39.1113C68.4883 38.9824 68.0254 38.8418 67.5098 38.6895C67.0059 38.5371 66.4844 38.3613 65.9453 38.1621C65.418 37.9629 64.9375 37.7168 64.5039 37.4238C64.082 37.1309 63.7422 36.7852 63.4844 36.3867C63.2383 35.9883 63.1445 35.5078 63.2031 34.9453C63.25 34.4648 63.4023 34.0664 63.6602 33.75C63.9297 33.4219 64.2637 33.1641 64.6621 32.9766C65.0723 32.7773 65.5234 32.6309 66.0156 32.5371C66.5195 32.4434 67.0293 32.3906 67.5449 32.3789C68.0723 32.3555 68.5879 32.3613 69.0918 32.3965C69.6074 32.4316 70.0703 32.4727 70.4805 32.5195C70.8906 32.5664 71.2363 32.6133 71.5176 32.6602C71.8105 32.6953 71.9922 32.7188 72.0625 32.7305C72.3672 32.7539 72.6719 32.748 72.9766 32.7129C73.2461 32.6895 73.5391 32.6367 73.8555 32.5547C74.1836 32.4609 74.5 32.3203 74.8047 32.1328ZM73.8203 32.9941C74.6406 33.0176 75.3203 33.0352 75.8594 33.0469C76.4102 33.0469 76.8555 33.0469 77.1953 33.0469H78.127H83.3652C83.3887 33.2812 83.4062 33.5098 83.418 33.7324C83.4414 33.9434 83.4531 34.1309 83.4531 34.2949C83.4531 34.4941 83.4473 34.6758 83.4355 34.8398C83.4238 35.0039 83.4062 35.1797 83.3828 35.3672C83.3594 35.5312 83.3359 35.707 83.3125 35.8945C83.2891 36.082 83.248 36.2754 83.1895 36.4746C83.0254 35.8418 82.8027 35.3613 82.5215 35.0332C82.252 34.7051 81.9766 34.4648 81.6953 34.3125C81.3672 34.1367 81.0215 34.043 80.6582 34.0312C80.1777 34.0547 79.8027 34.0957 79.5332 34.1543C79.2637 34.2129 79.0527 34.2949 78.9004 34.4004C78.748 34.5059 78.6309 34.6289 78.5488 34.7695C78.4785 34.8984 78.4023 35.0449 78.3203 35.209C78.25 35.3496 78.1855 35.5664 78.127 35.8594C78.0684 36.1055 78.0098 36.4395 77.9512 36.8613C77.9043 37.2832 77.8516 37.8281 77.793 38.4961C78.1094 38.4023 78.3613 38.3145 78.5488 38.2324C78.748 38.1504 78.9062 38.0801 79.0234 38.0215C79.1523 37.9512 79.2461 37.8867 79.3047 37.8281C79.3516 37.7578 79.4219 37.6289 79.5156 37.4414C79.5859 37.2773 79.6797 37.0547 79.7969 36.7734C79.9258 36.4922 80.0781 36.1055 80.2539 35.6133C80.2773 36.1523 80.2891 36.6035 80.2891 36.9668C80.2891 37.3184 80.2949 37.6055 80.3066 37.8281C80.3066 38.0859 80.3125 38.291 80.3242 38.4434V39.1113C80.3242 39.3574 80.3242 39.6914 80.3242 40.1133C80.3359 40.5234 80.3535 41.0449 80.377 41.6777C80.2363 41.2441 80.1074 40.9043 79.9902 40.6582C79.8848 40.4004 79.791 40.207 79.709 40.0781C79.6152 39.9258 79.5332 39.8203 79.4629 39.7617C79.3809 39.7383 79.2695 39.7148 79.1289 39.6914C79 39.6797 78.8359 39.6738 78.6367 39.6738C78.4492 39.6738 78.209 39.7031 77.916 39.7617C77.8809 40.4062 77.875 40.9277 77.8984 41.3262C77.9336 41.7129 77.9805 42.0117 78.0391 42.2227C78.0977 42.4688 78.168 42.6445 78.25 42.75C78.3555 42.8555 78.5664 42.9434 78.8828 43.0137C79.1992 43.0723 79.5566 43.0957 79.9551 43.084C80.3652 43.0605 80.7812 42.9902 81.2031 42.873C81.625 42.7559 82 42.5625 82.3281 42.293C82.5742 42.0703 82.8379 41.7891 83.1191 41.4492C83.3535 41.1562 83.6113 40.7871 83.8926 40.3418C84.1855 39.8965 84.4727 39.3574 84.7539 38.7246C84.707 39.252 84.6719 39.6914 84.6484 40.043C84.6367 40.3828 84.6191 40.6582 84.5957 40.8691C84.5723 41.1152 84.5547 41.3027 84.543 41.4316C84.543 41.5723 84.5254 41.7715 84.4902 42.0293C84.4668 42.252 84.4258 42.5566 84.3672 42.9434C84.3203 43.3184 84.2559 43.7988 84.1738 44.3848C83.623 44.3965 83.1016 44.4082 82.6094 44.4199C82.1172 44.4199 81.6836 44.4258 81.3086 44.4375C80.8633 44.4492 80.4531 44.4609 80.0781 44.4727C79.6914 44.4727 79.2637 44.4902 78.7949 44.5254C78.3848 44.5488 77.8984 44.584 77.3359 44.6309C76.7852 44.6777 76.1758 44.7422 75.5078 44.8242C75.5664 44.0273 75.6074 43.2773 75.6309 42.5742C75.666 41.8594 75.6895 41.2324 75.7012 40.6934C75.7129 40.0605 75.7129 39.4746 75.7012 38.9355C75.7598 37.5879 75.7363 36.498 75.6309 35.666C75.5254 34.834 75.4023 34.3008 75.2617 34.0664C75.1914 33.9844 75.0918 33.8848 74.9629 33.7676C74.8574 33.6738 74.7109 33.5625 74.5234 33.4336C74.3359 33.3047 74.1016 33.1582 73.8203 32.9941ZM84.4902 32.5371C85.0176 32.6309 85.4512 32.6953 85.791 32.7305C86.1309 32.7656 86.4062 32.7949 86.6172 32.8184C86.8633 32.8418 87.0566 32.8477 87.1973 32.8359H87.7246C87.9121 32.8359 88.1465 32.8359 88.4277 32.8359C88.7207 32.8242 89.084 32.8184 89.5176 32.8184C89.7637 33.3926 89.9863 33.9199 90.1855 34.4004C90.3965 34.8809 90.5723 35.291 90.7129 35.6309C90.877 36.041 91.0293 36.4102 91.1699 36.7383C91.334 37.1484 91.5098 37.5996 91.6973 38.0918C91.8848 38.584 92.0547 39.0469 92.207 39.4805C92.3711 39.9141 92.5059 40.2715 92.6113 40.5527C92.7168 40.834 92.7695 40.9629 92.7695 40.9395C92.7695 40.9277 92.7754 40.8105 92.7871 40.5879C92.7988 40.3535 92.8105 40.0664 92.8223 39.7266C92.834 39.375 92.8457 38.9941 92.8574 38.584C92.8809 38.1621 92.8926 37.7578 92.8926 37.3711C92.9043 36.9727 92.9102 36.6094 92.9102 36.2812C92.9102 35.9531 92.8984 35.707 92.875 35.543C92.8398 35.3438 92.7695 35.1152 92.6641 34.8574C92.5703 34.6348 92.4414 34.3711 92.2773 34.0664C92.1133 33.75 91.8848 33.3926 91.5918 32.9941C92.0723 33.0059 92.4648 33.0117 92.7695 33.0117C93.0742 33.0117 93.3203 33.0117 93.5078 33.0117C93.7188 33.0117 93.8828 33.0059 94 32.9941C94.1523 32.9941 94.3398 32.9824 94.5625 32.959C94.7617 32.9355 95.0078 32.918 95.3008 32.9062C95.6055 32.8828 95.9805 32.8535 96.4258 32.8184C96.168 33.0527 95.9629 33.2754 95.8105 33.4863C95.6582 33.6973 95.5352 33.8848 95.4414 34.0488C95.3359 34.2363 95.2656 34.4121 95.2305 34.5762C95.1836 34.7871 95.1426 35.1328 95.1074 35.6133C95.084 36.082 95.0547 36.6094 95.0195 37.1953C94.9961 37.7812 94.9727 38.3906 94.9492 39.0234C94.9258 39.6562 94.9023 40.2363 94.8789 40.7637C94.8789 41.1621 94.8672 41.5898 94.8438 42.0469C94.8203 42.4336 94.7969 42.873 94.7734 43.3652C94.75 43.8457 94.7207 44.332 94.6855 44.8242L93.1211 44.8594C92.6641 44.0508 92.2773 43.3594 91.9609 42.7852C91.6562 42.1992 91.4043 41.7188 91.2051 41.3438C90.9824 40.9102 90.7949 40.5469 90.6426 40.2539C90.5137 39.9727 90.3438 39.6504 90.1328 39.2871C89.957 38.9824 89.7344 38.6074 89.4648 38.1621C89.207 37.7168 88.8965 37.207 88.5332 36.6328C88.498 37.4414 88.4805 38.1328 88.4805 38.707C88.4922 39.2695 88.5098 39.7383 88.5332 40.1133C88.5684 40.5469 88.6094 40.9102 88.6562 41.2031C88.7148 41.4844 88.7969 41.8008 88.9023 42.1523C88.9961 42.457 89.1074 42.8145 89.2363 43.2246C89.377 43.6348 89.5469 44.0977 89.7461 44.6133C89.0547 44.5781 88.5391 44.5605 88.1992 44.5605H87.6719C87.5078 44.5605 87.2852 44.5781 87.0039 44.6133C86.7695 44.6367 86.4473 44.6719 86.0371 44.7188C85.6387 44.7656 85.1406 44.8301 84.543 44.9121C84.8242 44.5723 85.0469 44.2617 85.2109 43.9805C85.3867 43.6875 85.5215 43.4414 85.6152 43.2422C85.7324 43.0078 85.8145 42.8027 85.8613 42.627C85.8965 42.4395 85.9199 42.1172 85.9316 41.6602C85.9434 41.1914 85.9434 40.6641 85.9316 40.0781C85.9316 39.4805 85.9199 38.8535 85.8965 38.1973C85.8848 37.541 85.8672 36.9316 85.8438 36.3691C85.8203 35.8066 85.791 35.3262 85.7559 34.9277C85.7324 34.5293 85.7148 34.2832 85.7031 34.1895C85.668 34.0371 85.5977 33.873 85.4922 33.6973C85.3984 33.5449 85.2754 33.375 85.123 33.1875C84.9707 32.9883 84.7598 32.7715 84.4902 32.5371ZM95.8105 32.168C96.5957 32.2617 97.2754 32.332 97.8496 32.3789C98.4238 32.4141 98.8984 32.4434 99.2734 32.4668C99.707 32.4902 100.07 32.4961 100.363 32.4844C100.668 32.4727 101.084 32.4434 101.611 32.3965C102.057 32.3613 102.643 32.3145 103.369 32.2559C104.096 32.1855 105.004 32.0918 106.094 31.9746C106.105 32.2441 106.111 32.5078 106.111 32.7656C106.123 33.0117 106.135 33.2285 106.146 33.416C106.158 33.6387 106.164 33.8438 106.164 34.0312C106.164 34.2305 106.152 34.4824 106.129 34.7871C106.105 35.0449 106.064 35.373 106.006 35.7715C105.959 36.1582 105.883 36.6211 105.777 37.1602C105.613 36.5273 105.455 36.0176 105.303 35.6309C105.15 35.2324 105.01 34.916 104.881 34.6816C104.74 34.4121 104.6 34.207 104.459 34.0664C104.307 33.9609 104.125 33.873 103.914 33.8027C103.727 33.7441 103.486 33.6973 103.193 33.6621C102.912 33.627 102.578 33.6328 102.191 33.6797C102.133 35.2266 102.092 36.4805 102.068 37.4414C102.045 38.4023 102.027 39.1523 102.016 39.6914C102.004 40.3359 101.998 40.7988 101.998 41.0801C102.01 41.4785 102.074 41.8711 102.191 42.2578C102.285 42.5859 102.438 42.9258 102.648 43.2773C102.859 43.6289 103.164 43.9395 103.562 44.209H101.418C101.219 44.209 100.973 44.2207 100.68 44.2441C100.434 44.2676 100.117 44.291 99.7305 44.3145C99.3555 44.3379 98.916 44.3789 98.4121 44.4375C98.5879 44.1328 98.7285 43.8574 98.834 43.6113C98.9395 43.3652 99.0215 43.1543 99.0801 42.9785C99.1504 42.7676 99.2031 42.5801 99.2383 42.416C99.25 42.1816 99.2793 41.707 99.3262 40.9922C99.3379 40.6992 99.3496 40.3359 99.3613 39.9023C99.3848 39.4688 99.4082 38.9531 99.4316 38.3555C99.4668 37.7578 99.4961 37.0723 99.5195 36.2988C99.5547 35.5137 99.5898 34.6289 99.625 33.6445C99.4141 33.5859 99.2148 33.5918 99.0273 33.6621C98.8398 33.7207 98.6758 33.7969 98.5352 33.8906C98.3711 34.0078 98.2129 34.1484 98.0605 34.3125C97.9082 34.5117 97.7383 34.7695 97.5508 35.0859C97.3867 35.3555 97.1992 35.7129 96.9883 36.1582C96.7773 36.5918 96.5371 37.1309 96.2676 37.7754C96.209 37.0957 96.168 36.5391 96.1445 36.1055C96.1211 35.6602 96.1035 35.3145 96.0918 35.0684C96.0801 34.7754 96.0742 34.5586 96.0742 34.418C96.0742 34.2891 96.0625 34.1191 96.0391 33.9082C96.0156 33.7324 95.9863 33.5039 95.9512 33.2227C95.916 32.9297 95.8691 32.5781 95.8105 32.168ZM104.916 32.9941C105.736 33.0176 106.416 33.0352 106.955 33.0469C107.506 33.0469 107.951 33.0469 108.291 33.0469H109.223H114.461C114.484 33.2812 114.502 33.5098 114.514 33.7324C114.537 33.9434 114.549 34.1309 114.549 34.2949C114.549 34.4941 114.543 34.6758 114.531 34.8398C114.52 35.0039 114.502 35.1797 114.479 35.3672C114.455 35.5312 114.432 35.707 114.408 35.8945C114.385 36.082 114.344 36.2754 114.285 36.4746C114.121 35.8418 113.898 35.3613 113.617 35.0332C113.348 34.7051 113.072 34.4648 112.791 34.3125C112.463 34.1367 112.117 34.043 111.754 34.0312C111.273 34.0547 110.898 34.0957 110.629 34.1543C110.359 34.2129 110.148 34.2949 109.996 34.4004C109.844 34.5059 109.727 34.6289 109.645 34.7695C109.574 34.8984 109.498 35.0449 109.416 35.209C109.346 35.3496 109.281 35.5664 109.223 35.8594C109.164 36.1055 109.105 36.4395 109.047 36.8613C109 37.2832 108.947 37.8281 108.889 38.4961C109.205 38.4023 109.457 38.3145 109.645 38.2324C109.844 38.1504 110.002 38.0801 110.119 38.0215C110.248 37.9512 110.342 37.8867 110.4 37.8281C110.447 37.7578 110.518 37.6289 110.611 37.4414C110.682 37.2773 110.775 37.0547 110.893 36.7734C111.021 36.4922 111.174 36.1055 111.35 35.6133C111.373 36.1523 111.385 36.6035 111.385 36.9668C111.385 37.3184 111.391 37.6055 111.402 37.8281C111.402 38.0859 111.408 38.291 111.42 38.4434V39.1113C111.42 39.3574 111.42 39.6914 111.42 40.1133C111.432 40.5234 111.449 41.0449 111.473 41.6777C111.332 41.2441 111.203 40.9043 111.086 40.6582C110.98 40.4004 110.887 40.207 110.805 40.0781C110.711 39.9258 110.629 39.8203 110.559 39.7617C110.477 39.7383 110.365 39.7148 110.225 39.6914C110.096 39.6797 109.932 39.6738 109.732 39.6738C109.545 39.6738 109.305 39.7031 109.012 39.7617C108.977 40.4062 108.971 40.9277 108.994 41.3262C109.029 41.7129 109.076 42.0117 109.135 42.2227C109.193 42.4688 109.264 42.6445 109.346 42.75C109.451 42.8555 109.662 42.9434 109.979 43.0137C110.295 43.0723 110.652 43.0957 111.051 43.084C111.461 43.0605 111.877 42.9902 112.299 42.873C112.721 42.7559 113.096 42.5625 113.424 42.293C113.67 42.0703 113.934 41.7891 114.215 41.4492C114.449 41.1562 114.707 40.7871 114.988 40.3418C115.281 39.8965 115.568 39.3574 115.85 38.7246C115.803 39.252 115.768 39.6914 115.744 40.043C115.732 40.3828 115.715 40.6582 115.691 40.8691C115.668 41.1152 115.65 41.3027 115.639 41.4316C115.639 41.5723 115.621 41.7715 115.586 42.0293C115.562 42.252 115.521 42.5566 115.463 42.9434C115.416 43.3184 115.352 43.7988 115.27 44.3848C114.719 44.3965 114.197 44.4082 113.705 44.4199C113.213 44.4199 112.779 44.4258 112.404 44.4375C111.959 44.4492 111.549 44.4609 111.174 44.4727C110.787 44.4727 110.359 44.4902 109.891 44.5254C109.48 44.5488 108.994 44.584 108.432 44.6309C107.881 44.6777 107.271 44.7422 106.604 44.8242C106.662 44.0273 106.703 43.2773 106.727 42.5742C106.762 41.8594 106.785 41.2324 106.797 40.6934C106.809 40.0605 106.809 39.4746 106.797 38.9355C106.855 37.5879 106.832 36.498 106.727 35.666C106.621 34.834 106.498 34.3008 106.357 34.0664C106.287 33.9844 106.188 33.8848 106.059 33.7676C105.953 33.6738 105.807 33.5625 105.619 33.4336C105.432 33.3047 105.197 33.1582 104.916 32.9941ZM117.713 32.3262C117.936 32.3848 118.146 32.4316 118.346 32.4668C118.545 32.4902 118.721 32.5137 118.873 32.5371C119.049 32.5605 119.213 32.5781 119.365 32.5898C119.529 32.6016 119.723 32.6133 119.945 32.625C120.145 32.6367 120.385 32.6426 120.666 32.6426C120.947 32.6426 121.281 32.6426 121.668 32.6426C121.328 33.4512 121.053 34.1367 120.842 34.6992C120.631 35.25 120.467 35.707 120.35 36.0703C120.221 36.4922 120.127 36.8379 120.068 37.1074C120.021 37.377 119.963 37.7051 119.893 38.0918C119.834 38.4316 119.752 38.8477 119.646 39.3398C119.541 39.832 119.424 40.418 119.295 41.0977L117.748 41.0273C117.842 40.4062 117.906 39.8789 117.941 39.4453C117.977 39 118.006 38.6309 118.029 38.3379C118.053 37.998 118.064 37.7168 118.064 37.4941C118.064 37.2598 118.047 36.9082 118.012 36.4395C117.988 36.0527 117.953 35.5312 117.906 34.875C117.859 34.207 117.795 33.3574 117.713 32.3262ZM119.646 42.4336C119.729 42.5625 119.775 42.709 119.787 42.873C119.811 43.0254 119.799 43.1836 119.752 43.3477C119.717 43.5 119.641 43.6465 119.523 43.7871C119.418 43.9277 119.271 44.0391 119.084 44.1211C118.709 44.2969 118.375 44.3438 118.082 44.2617C117.789 44.168 117.572 44.0156 117.432 43.8047C117.35 43.6875 117.303 43.5586 117.291 43.418C117.291 43.2656 117.32 43.1191 117.379 42.9785C117.438 42.8262 117.531 42.6855 117.66 42.5566C117.789 42.4277 117.953 42.3223 118.152 42.2402C118.539 42.0762 118.855 42.0176 119.102 42.0645C119.359 42.1113 119.541 42.2344 119.646 42.4336Z" fill="white"/>
</svg>
